<mxfile host="app.diagrams.net" modified="2023-06-20T22:38:03.712Z" agent="Mozilla/5.0 (Windows NT 10.0; Win64; x64) AppleWebKit/537.36 (KHTML, like Gecko) Chrome/114.0.0.0 Safari/537.36" etag="g2GoLH7bxKs2-PykwmH0" version="21.3.7" type="device">
  <diagram name="PÃ¡gina-1" id="Tlnbzv63hZlBu6GsLdnM">
    <mxGraphModel dx="964" dy="679" grid="1" gridSize="10" guides="1" tooltips="1" connect="1" arrows="1" fold="1" page="1" pageScale="1" pageWidth="850" pageHeight="1100" math="0" shadow="0">
      <root>
        <mxCell id="0" />
        <mxCell id="1" parent="0" />
        <mxCell id="MFoSRjlAhWc2RW6hAVSm-2" value="" style="rounded=0;whiteSpace=wrap;html=1;" vertex="1" parent="1">
          <mxGeometry x="160" y="20" width="570" height="640" as="geometry" />
        </mxCell>
        <mxCell id="MFoSRjlAhWc2RW6hAVSm-3" value="&amp;lt;HEAD&amp;gt;&lt;br&gt;" style="rounded=0;whiteSpace=wrap;html=1;" vertex="1" parent="1">
          <mxGeometry x="160" y="20" width="570" height="70" as="geometry" />
        </mxCell>
        <mxCell id="MFoSRjlAhWc2RW6hAVSm-4" value="&amp;lt;FOOTER&amp;gt;" style="rounded=0;whiteSpace=wrap;html=1;" vertex="1" parent="1">
          <mxGeometry x="160" y="590" width="570" height="70" as="geometry" />
        </mxCell>
        <mxCell id="MFoSRjlAhWc2RW6hAVSm-5" value="" style="rounded=0;whiteSpace=wrap;html=1;" vertex="1" parent="1">
          <mxGeometry x="210" y="140" width="150" height="130" as="geometry" />
        </mxCell>
        <mxCell id="MFoSRjlAhWc2RW6hAVSm-6" value="logo" style="text;html=1;strokeColor=none;fillColor=none;align=center;verticalAlign=middle;whiteSpace=wrap;rounded=0;" vertex="1" parent="1">
          <mxGeometry x="180" y="60" width="60" height="30" as="geometry" />
        </mxCell>
        <mxCell id="MFoSRjlAhWc2RW6hAVSm-7" value="Inicio" style="text;html=1;strokeColor=none;fillColor=none;align=center;verticalAlign=middle;whiteSpace=wrap;rounded=0;" vertex="1" parent="1">
          <mxGeometry x="415" y="60" width="60" height="30" as="geometry" />
        </mxCell>
        <mxCell id="MFoSRjlAhWc2RW6hAVSm-8" value="Servicios" style="text;html=1;strokeColor=none;fillColor=none;align=center;verticalAlign=middle;whiteSpace=wrap;rounded=0;" vertex="1" parent="1">
          <mxGeometry x="590" y="60" width="60" height="30" as="geometry" />
        </mxCell>
        <mxCell id="MFoSRjlAhWc2RW6hAVSm-9" value="Quienes somos" style="text;html=1;strokeColor=none;fillColor=none;align=center;verticalAlign=middle;whiteSpace=wrap;rounded=0;" vertex="1" parent="1">
          <mxGeometry x="510" y="60" width="60" height="30" as="geometry" />
        </mxCell>
        <mxCell id="MFoSRjlAhWc2RW6hAVSm-13" value="Contacto" style="text;html=1;strokeColor=none;fillColor=none;align=center;verticalAlign=middle;whiteSpace=wrap;rounded=0;" vertex="1" parent="1">
          <mxGeometry x="670" y="60" width="60" height="30" as="geometry" />
        </mxCell>
        <mxCell id="MFoSRjlAhWc2RW6hAVSm-15" style="edgeStyle=orthogonalEdgeStyle;rounded=0;orthogonalLoop=1;jettySize=auto;html=1;exitX=0.5;exitY=1;exitDx=0;exitDy=0;" edge="1" parent="1" source="MFoSRjlAhWc2RW6hAVSm-9" target="MFoSRjlAhWc2RW6hAVSm-9">
          <mxGeometry relative="1" as="geometry" />
        </mxCell>
      </root>
    </mxGraphModel>
  </diagram>
</mxfile>
